<?xml version="1.0" encoding="UTF-8" standalone="no"?>
<!DOCTYPE svg PUBLIC "-//W3C//DTD SVG 1.1//EN" "http://www.w3.org/Graphics/SVG/1.1/DTD/svg11.dtd">
<svg width="100%" height="100%" viewBox="0 0 512 360" version="1.1" xmlns="http://www.w3.org/2000/svg" xmlns:xlink="http://www.w3.org/1999/xlink" xml:space="preserve" xmlns:serif="http://www.serif.com/" style="fill-rule:evenodd;clip-rule:evenodd;stroke-linecap:round;stroke-linejoin:round;stroke-miterlimit:1.5;">
    <g transform="matrix(1,0,0,1,0.246537,-142.88)">
        <g transform="matrix(1,0,0,1,214.14,261.962)">
            <path d="M23.473,205.495C40.262,205.495 57.158,206.242 73.936,205.584" style="fill:none;stroke:black;stroke-width:4.17px;"/>
            <path d="M28.52,205.495C28.52,203.308 29.852,200.708 30.622,198.716C32.883,192.867 35.892,182.546 43.907,183.206C47.871,183.532 47.933,189.319 51.856,189.088C54.704,188.92 56.017,185.468 57.464,183.484C58.268,182.38 59.709,181.571 61.001,182.389C63.12,183.731 63.766,186.765 64.349,189.019C65.632,193.987 67.139,198.863 68.383,203.84" style="fill:none;stroke:black;stroke-width:4.17px;"/>
            <path d="M28.689,212.73C29.421,212.73 30.577,213.678 31.168,214.035C34.828,216.242 35.285,217.94 34.911,222.059" style="fill:none;stroke:black;stroke-width:4.17px;"/>
            <path d="M35.587,216.431C37.626,216.431 39.749,215.56 41.885,215.583C45.056,215.618 48.186,216.313 51.352,216.483C56.859,216.779 62.409,216.602 67.92,216.493C71.987,216.413 76.921,215.612 78.204,220.511C78.389,221.215 78.546,221.931 78.537,222.664C78.502,225.478 76.327,226.501 73.936,227.248C70.677,228.266 66.505,229.763 63.373,227.626C61.322,226.226 59.746,223.375 58.885,221.101C58.579,220.292 58.342,219.453 58.168,218.605C58.107,218.307 58.059,218.011 58.03,217.709C58.017,217.566 57.949,217.151 58.013,217.279C58.297,217.847 58.15,218.995 58.13,219.594C58.026,222.744 56.014,225.81 53.24,227.279C47.779,230.17 37.718,229.245 34.406,223.491" style="fill:none;stroke:black;stroke-width:4.17px;"/>
            <path d="M75.296,216.768C74.947,216.768 74.245,215.979 74.015,215.775C72.758,214.665 71.59,213.504 70.516,212.215" style="fill:none;stroke:black;stroke-width:4.17px;"/>
        </g>
        <g transform="matrix(0.740157,0,0,0.740157,135.987,152.369)">
            <path d="M43.961,122.073C41.506,122.073 38.656,122.001 36.552,123.463C33.726,125.426 35.079,129.079 37.818,130.352C39.724,131.238 41.842,131.322 43.891,131.044C44.6,130.948 46.392,130.363 47.014,130.985C47.561,131.532 45.438,134.943 45.276,135.642C44.287,139.903 48.616,142.438 52.331,142.338C53.338,142.311 54.324,142.129 55.271,141.785C62.752,139.075 55.721,131.879 58.63,127.24C60.175,124.777 63.055,123.453 65.417,121.912C68.587,119.845 71.449,117.36 74.409,115.012C78.502,111.767 83.196,107.773 88.139,105.945C91.797,104.592 95.843,104.638 99.422,103.134C101.86,102.109 104.267,99.672 103.124,96.84C101.727,93.378 96.614,93.057 93.456,93.583C92.043,93.819 90.31,94.517 88.955,93.691C86.028,91.906 89.415,84.46 83.514,85.401C79.402,86.057 79.031,90.377 78.353,93.691C77.756,96.602 76.728,99.062 74.517,101.1C65.314,109.581 53.504,114.234 43.961,122.073Z" style="fill:none;stroke:black;stroke-width:5.63px;"/>
        </g>
        <g transform="matrix(1,0,0,1,56.9251,80.9077)">
            <path d="M34.863,98.785C30.323,98.785 24.367,97.27 21.536,93.517C19.531,90.859 18.67,85.777 21.675,83.51C23.904,81.829 27.243,82.452 29.648,83.387C30.559,83.741 32.42,85.325 33.452,84.61C34.764,83.702 34.477,80.692 34.659,79.358C35.24,75.102 37.697,71.607 42.407,71.728C45.185,71.799 47.204,73.342 48.432,75.763C48.808,76.504 49.808,79.687 51.007,79.503C52.338,79.298 52.94,76.355 53.374,75.414C54.677,72.583 57.215,69.693 60.627,69.882C63.916,70.065 66.032,72.736 67.001,75.645C67.366,76.737 67.719,79.399 68.992,79.889C70.917,80.629 73.141,78.089 74.636,77.249C77.626,75.57 80.949,75.197 84.138,76.6C86.899,77.815 89.148,80.887 87.91,83.934C87.649,84.578 85.744,86.526 86.005,87.223C86.326,88.078 89.679,88.36 90.416,88.624C94.427,90.06 97.139,94.823 93.318,98.088C88.841,101.915 80.444,100.893 75.049,100.663C61.01,100.066 46.973,99.939 32.942,99.043" style="fill:none;stroke:black;stroke-width:4.17px;"/>
        </g>
        <g transform="matrix(0.61688,0,0,0.691612,124.159,239.218)">
            <path d="M179.722,63.557C179.722,68.143 177.199,73.669 176.073,78.081C175.601,79.93 174.685,82.751 176.32,84.31C179.179,87.036 186.536,84.887 189.975,84.433C191.621,84.216 194.72,83.873 194.766,86.284C194.816,88.913 192.7,91.812 191.45,94.005C188.535,99.121 185.521,104.194 182.887,109.462C182.04,111.156 178.758,115.825 180.092,117.693C180.91,118.839 183.483,118.247 184.556,118.058C188.857,117.299 193.148,115.855 197.325,114.592C198.531,114.227 202.146,112.752 203.018,114.495C203.814,116.088 201.933,118.612 201.263,119.936C198.912,124.588 196.717,129.347 194.664,134.138C194.074,135.515 191.93,138.982 193.033,140.538C193.592,141.328 195.364,139.959 195.839,139.632C198.326,137.915 200.582,135.79 202.803,133.751C209.254,127.831 213.279,120.448 218.577,113.605C220.719,110.838 224.47,107.415 224.849,103.743C225.089,101.43 222.554,100.692 220.718,100.594C215.909,100.335 210.718,100.498 205.92,100.916C204.799,101.013 201.305,101.894 200.518,100.615C199.665,99.229 202.435,95.553 202.996,94.338C205.041,89.908 207.571,85.645 209.392,81.123C210.093,79.382 211.143,77.163 210.422,75.275C209.53,72.939 206.658,72.818 204.552,72.774C199.899,72.677 193.821,73.885 189.379,72.404C187.762,71.865 187.874,70.473 188.376,69.088C189.118,67.041 192.149,63.674 190.474,61.491C187.796,58.002 181.409,59.971 179.722,63.557Z" style="fill:none;stroke:black;stroke-width:6.36px;"/>
        </g>
        <g transform="matrix(0.692696,0,0,0.692696,-5.66484,92.9391)">
            <path d="M158.491,177.961C158.491,175.601 156.105,173.539 156.513,170.597C157.43,163.972 166.913,162.81 171.858,165.178C176.191,167.254 178.445,171.791 177.632,176.479C177.427,177.664 173.991,182.875 175.426,183.541C177.265,184.395 180.42,183.435 182.327,183.28C187.195,182.882 192.057,182.949 196.927,183.259C199.53,183.426 202.2,183.602 204.123,185.6C209.243,190.921 203.704,199.366 207.45,204.915C209.036,207.265 213.742,204.358 215.967,204.419C222.329,204.593 225.689,212.488 225.135,218.027C224.551,223.872 219.077,225.401 213.902,225.223C211.377,225.136 207.733,224.811 206.404,227.523C203.499,233.449 211.466,245 204.579,249.092C201.202,251.099 196.346,250.721 192.561,250.789C181.781,250.981 170.88,248.157 160.228,246.704C155.222,246.022 139.655,249.196 137.939,243.45C136.338,238.093 135.613,227.76 134.877,222.226C133.491,211.803 127.467,187.469 140.584,184.925C146.982,183.683 153.32,184.637 158.82,183.957C164.882,183.208 162.383,181.019 158.491,177.961Z" style="fill:none;stroke:black;stroke-width:6.02px;"/>
        </g>
        <g transform="matrix(1,0,0,1,182.407,143.625)">
            <path d="M139.541,71.615C138.895,71.615 137.701,70.544 137.184,70.229C135.21,69.024 133.193,67.852 131.132,66.799C123.34,62.818 115.068,61.016 107.276,65.911C100.048,70.451 98.571,76.591 98.571,84.805C98.571,88.499 98.804,92.454 100.498,95.806C104.034,102.8 113.02,108.825 120.749,109.443C134.268,110.524 143.589,97.571 144.966,85.376C145.735,78.57 144.532,71.823 138.287,67.941" style="fill:none;stroke:black;stroke-width:4.17px;"/>
            <path d="M122.084,86.127L122.028,86.127" style="fill:none;stroke:black;stroke-width:4.17px;"/>
            <path d="M131.759,75.611C130.722,76.13 129.728,77.57 128.93,78.38C126.615,80.729 120.86,85.006 121.985,88.913C122.64,91.184 125.656,92.893 127.213,94.57" style="fill:none;stroke:black;stroke-width:4.17px;"/>
        </g>
        <g transform="matrix(1,0,0,1,170.12,119.792)">
            <path d="M174.548,53.331C174.548,52.15 175.04,50.83 175.312,49.696C175.676,48.182 176.001,46.532 177.016,45.3C178.849,43.079 181.895,43.018 184.541,42.914C189.557,42.717 196.288,44.053 201.006,42.154C205.042,40.529 203.903,35.2 206.478,32.334C208.178,30.442 210.921,29.818 213.316,29.376C217.368,28.629 221.458,27.838 225.558,27.406C227.692,27.181 230.118,27.008 232.099,27.998C236.615,30.256 235.27,36.363 238.22,39.742C241.172,43.124 246.302,41.019 249.852,43.026C253.761,45.235 253.771,54.707 249.487,56.585C246.438,57.921 240.961,58.409 238.233,56.16C234.467,53.055 233.978,46.675 227.511,47.807C226.524,47.98 225.586,48.338 224.695,48.79C219.825,51.258 218.353,56.662 212.269,56.662C211.263,56.662 210.351,56.617 209.397,56.271C207.56,55.605 205.683,54.475 204.191,53.211C202.785,52.02 201.963,50.415 200.053,49.958C194.695,48.675 192.318,54.266 188.271,56.233C184.165,58.228 178.71,56.44 174.604,55.267" style="fill:none;stroke:black;stroke-width:4.17px;"/>
            <path d="M188.43,57.117C188.883,57.268 189.403,58.381 189.657,58.735C190.428,59.809 191.394,60.882 192.529,61.577C197.019,64.324 203.323,61.353 206.302,57.628" style="fill:none;stroke:black;stroke-width:4.17px;"/>
            <path d="M218.505,55.855C218.505,57.233 221.257,59.552 222.18,60.255C226.766,63.745 234.74,63.509 238.718,59.225" style="fill:none;stroke:black;stroke-width:4.17px;"/>
        </g>
        <g transform="matrix(1,0,0,1,182.636,130.249)">
            <path d="M98.342,48.057C98.342,47.193 99.969,45.454 100.402,44.782C102.149,42.068 103.817,39.334 105.274,36.451C106.369,34.284 107.127,32.01 108.055,29.772C108.289,29.208 108.6,27.735 109.506,27.961C110.954,28.323 111.644,31.403 112.008,32.528C113.473,37.054 114.459,41.711 116.524,46.027C117.102,47.236 118.933,49.452 117.773,50.8C116.466,52.318 113.819,51.947 112.073,51.873C107.508,51.682 102.943,52.095 98.38,51.916" style="fill:none;stroke:black;stroke-width:4.17px;"/>
            <path d="M109.699,28.287C110.844,28.287 113.201,26.348 114.172,25.867C118.115,23.911 122.195,22.395 126.284,20.784C127.995,20.111 129.787,18.833 131.71,19.239C134.167,19.758 135.24,22.152 136.109,24.261C137.866,28.522 139.156,32.957 140.942,37.207C141.725,39.069 143.721,42.082 142.08,43.984C140.355,45.984 137.027,46.184 134.693,47.023C129.483,48.897 124.285,50.976 119.125,52.989" style="fill:none;stroke:black;stroke-width:4.17px;"/>
        </g>
        <g transform="matrix(1,0,0,1,55.959,85.9582)">
            <g transform="matrix(1,0,0,1,128,128)">
                <path d="M186.985,98.63C186.985,102.405 188.064,108.961 190.917,111.558C193.596,113.998 197.548,114.08 200.952,114.451C207.125,115.124 213.134,115.666 219.353,115.666C222.505,115.666 226.13,115.817 229.058,114.451C233.52,112.369 235.968,106.923 237.625,102.596C238.181,101.145 239.177,99.131 239.024,97.548C238.496,92.067 228.991,93.474 225.358,93.359C214.568,93.016 203.754,93.372 192.96,93.372C190.274,93.372 183.7,92.895 182.736,96.432C182.047,98.955 186.637,102.336 187.71,104.536" style="fill:none;stroke:black;stroke-width:4.17px;"/>
            </g>
            <g transform="matrix(1,0,0,1,128,128)">
                <path d="M199.814,93.161C199.642,93.075 199.871,91.849 199.887,91.702C200.073,90.002 200.308,88.305 200.712,86.641C202.102,80.906 205.938,73.675 212.614,73.331C223.405,72.775 224.309,85.18 227.242,92.427" style="fill:none;stroke:black;stroke-width:4.17px;"/>
                <path d="M189.094,105.952C193.783,101.263 200.171,97.259 206.1,94.367" style="fill:none;stroke:black;stroke-width:4.17px;"/>
                <path d="M200.662,112.682C201.18,112.682 202.04,111.775 202.418,111.493C204.11,110.231 205.769,108.93 207.474,107.681C213.147,103.527 219.425,100.342 225.098,96.191" style="fill:none;stroke:black;stroke-width:4.17px;"/>
                <path d="M217.698,115.837C219.548,113.37 222.635,111.396 224.922,109.368C228.968,105.781 232.86,101.98 237.073,98.586" style="fill:none;stroke:black;stroke-width:4.17px;"/>
            </g>
        </g>
        <g transform="matrix(1,0,0,1,186.211,204.471)">
            <path d="M37.488,40.536C36.374,42.765 35.978,45.479 35.566,47.903C35.425,48.728 35.007,49.987 35.678,50.694C36.362,51.415 37.608,50.913 38.354,50.593C40.264,49.771 42.112,48.811 44.024,47.991C44.924,47.606 46.08,47.326 46.359,46.25C46.619,45.247 45.864,44.261 45.279,43.53C43.813,41.698 42.271,39.975 40.197,38.803C39.59,38.459 38.737,38.078 38.027,38.311C37.726,38.409 37.438,38.589 37.145,38.715C37.009,38.773 36.712,39.041 36.741,38.896C36.878,38.211 37.738,37.255 38.178,36.745C39.715,34.962 41.56,33.404 43.37,31.91C49.365,26.96 56.105,22.985 62.333,18.356C64.494,16.75 67.518,13.325 70.368,13.239C72.052,13.187 73.158,14.818 74.027,16.035C76.025,18.832 77.977,21.856 75.502,24.949C72.716,28.432 68.981,30.658 65.561,33.424C62.175,36.162 58.644,38.697 55.149,41.291C52.602,43.183 50.23,45.307 47.479,46.912" style="fill:none;stroke:black;stroke-width:4.17px;"/>
            <path d="M70.467,16.442C70.87,16.576 71.267,17.254 71.511,17.56C72.353,18.618 73.114,19.731 73.914,20.82C74.02,20.964 74.937,22.01 74.802,22.235C74.791,22.253 74.513,21.893 74.499,21.875C74.294,21.601 74.08,21.333 73.868,21.065C73.22,20.246 72.674,19.367 72.126,18.48C72.079,18.403 71.379,17.384 71.346,17.507C71.226,17.957 71.626,18.719 71.769,19.123C72.254,20.491 72.784,21.843 73.271,23.21C73.316,23.336 73.949,24.865 73.777,24.941C73.668,24.989 73.103,23.907 73.054,23.826C72.265,22.5 71.471,21.174 70.634,19.878C69.889,18.724 69.025,17.667 68.145,16.615C68.096,16.556 67.293,15.635 67.349,15.579C67.377,15.551 67.824,16.015 67.849,16.041C68.367,16.559 68.868,17.093 69.335,17.659C69.811,18.236 70.25,18.841 70.689,19.447" style="fill:none;stroke:black;stroke-width:4.17px;"/>
        </g>
        <g transform="matrix(1,0,0,1,202.664,324.043)">
            <path d="M208.442,137.116C208.442,137.801 207.803,138.748 207.587,139.386C206.782,141.767 205.591,146.439 208.178,148.239C211.795,150.755 215.598,145.463 217.6,143.191C218.222,142.485 218.871,141.801 219.551,141.151C219.62,141.085 220.205,140.596 220.162,140.468C220.034,140.083 219.543,140.994 219.255,141.282C218.66,141.877 218.097,142.503 217.566,143.156C216.31,144.702 214.672,146.182 213.552,147.792C212.994,148.594 212.99,149.347 213.899,149.859C216.677,151.425 220.056,149.621 222.243,147.878C223.134,147.167 223.945,146.378 224.774,145.598C224.816,145.558 225.553,144.858 225.622,144.973C225.713,145.125 225.111,145.717 225.035,145.801C224.337,146.566 223.605,147.299 222.861,148.019C220.916,149.9 218.729,151.306 215.918,151.178C213.717,151.078 211.093,149.355 209.05,150.859C207.639,151.897 207.073,153.894 206.44,155.446C205.451,157.874 204.259,160.241 202.687,162.348C198.542,167.904 193.149,170.738 187.647,174.693" style="fill:none;stroke:black;stroke-width:4.17px;"/>
        </g>
        <g transform="matrix(1,0,0,1,9.46442,122.815)">
            <g transform="matrix(1,0,0,1,128,128)">
                <path d="M206.336,243.488C206.336,239.21 206.336,234.933 206.336,230.656C206.336,228.796 206.672,226.187 205.622,224.544C204.789,223.241 203.368,222.896 202.032,222.316C200.652,221.717 199.335,220.927 198.117,220.047C191.867,215.528 188.042,208.14 190.153,200.337C191.026,197.113 195.241,194.751 198.079,197.29C199.473,198.538 200.018,200.589 200.875,202.199C202.116,204.53 203.844,206.828 206.097,208.262C207.441,209.117 209.654,210.228 211.135,209.075C213.423,207.296 212.797,202.283 212.797,199.741C212.797,194.034 212.692,188.3 213.336,182.619C213.588,180.386 213.633,177.448 215.025,175.561C216.454,173.624 219.33,173.871 220.794,175.611C222.618,177.779 222.91,181.328 223.219,184.028C223.554,186.946 223.648,189.89 223.95,192.813C224.302,196.21 224.571,199.608 225.054,202.991C225.273,204.522 225.303,206.247 226.068,207.633C227.912,210.972 231.847,207.319 234.048,206.674C235.499,206.25 237.26,206.889 237.795,208.383C238.587,210.593 237.606,212.761 235.675,213.943C232.71,215.757 228.783,216.27 227.642,220.091C227.029,222.143 227.168,224.411 227.082,226.527C226.942,229.957 226.72,233.38 226.9,236.812C227.035,239.368 227.938,242.849 226.362,245.117C224.794,247.373 221.151,247.741 218.665,247.875C216.921,247.968 215.148,247.93 213.421,247.655C210.959,247.263 208.33,246.415 206.325,244.894" style="fill:none;stroke:black;stroke-width:4.17px;"/>
            </g>
            <path d="M90.184,350.194C89.289,350.194 87.87,351.201 87.154,351.635C81.927,354.803 82.105,360.287 84.37,365.438C88.541,374.927 102.886,376.286 110.761,370.721C112.445,369.531 114.482,367.852 115.557,366.074C118.888,360.568 113.281,355.534 108.792,353.109C106.859,352.064 104.656,351.741 102.527,351.32C100.288,350.876 98.137,350.058 95.883,349.671C93.482,349.259 90.945,349.263 88.614,348.504C85.744,347.569 84.203,345.024 85.011,342.048C87.294,333.643 100.475,330.88 106.989,335.719C110.334,338.204 112.627,343.165 109.779,346.906C108.347,348.787 106.212,349.737 104.066,350.566" style="fill:none;stroke:black;stroke-width:4.17px;"/>
            <path d="M92.665,333.93C92.154,333.674 91.974,332.465 91.861,332.006C91.378,330.053 91.23,328.181 91.43,326.177C92.005,320.433 97.035,317.636 102.415,317.944C104.056,318.037 105.837,318.288 107.214,319.263C111.253,322.124 110.642,329.256 107.045,332.113" style="fill:none;stroke:black;stroke-width:4.17px;"/>
            <path d="M104.105,326.762C105.336,326.762 106.905,327.539 108.055,327.904C110.398,328.65 112.809,329.216 115.124,330.042" style="fill:none;stroke:black;stroke-width:4.17px;"/>
            <path d="M89.219,317.252C93.06,317.252 96.941,317.885 100.795,317.98C105.903,318.107 111.002,317.826 116.097,318.233" style="fill:none;stroke:black;stroke-width:4.17px;"/>
            <path d="M95.284,316.425C95.284,314.978 95.787,313.446 95.973,312.014C96.261,309.796 96.204,307.552 96.406,305.327C96.539,303.868 96.763,302.071 98.021,301.122C99.637,299.903 102.317,300.298 104.201,300.298C106.169,300.298 108.524,300.012 109.92,301.713C111.099,303.149 111.045,305.442 111.18,307.198C111.425,310.383 111.994,313.545 112.519,316.695" style="fill:none;stroke:black;stroke-width:4.17px;"/>
        </g>
        <g transform="matrix(0.561809,0,0,0.528735,43.8933,231.479)">
            <g>
                <path d="M238.791,402.293C238.621,401.953 235.537,402.104 235.194,402.089C231.8,401.938 227.351,401.392 225.827,405.226C224.558,408.417 224.692,412.255 224.396,415.63C224.045,419.628 223.82,423.629 223.587,427.635C223.36,431.538 223.155,435.904 224.494,439.653C225.824,443.375 230.1,444.372 233.552,445.159C242.075,447.103 251.046,447.088 259.713,448.008C264.989,448.567 270.33,449.392 275.595,448.359C277.657,447.955 280.137,447.221 281.678,445.708C285.624,441.836 284.378,433.745 284.157,428.812C283.919,423.485 282.91,418.161 281.71,412.975C281.094,410.313 280.313,407.246 278.169,405.366C274.939,402.533 269.474,402.982 265.479,402.982C256.691,402.982 248.048,402.61 239.287,401.973" style="fill:none;stroke:black;stroke-width:7.64px;"/>
                <path d="M232.416,454.498C232.928,454.498 233.601,455.088 234.016,455.332C235.359,456.122 236.67,456.975 238.039,457.719C242.935,460.385 247.953,463.207 253.127,465.29C259.093,467.692 265.149,468.001 271.481,468.359C276.6,468.649 281.698,469.051 286.788,468.233C288.904,467.893 291.414,467.374 293.096,465.951C297.118,462.547 293.058,456.893 289.91,454.467C287.275,452.437 284.061,451.284 281.285,449.46" style="fill:none;stroke:black;stroke-width:7.64px;"/>
                <path d="M228.798,455.877C228.798,461.243 227.212,466.317 225.117,471.208C223.789,474.305 221.664,478.069 223.028,481.503C223.776,483.387 225.465,484.441 227.029,485.599C229.413,487.364 231.722,489.22 234.227,490.814C244.11,497.103 256.089,499.459 267.659,499.038C273.212,498.837 279.737,497.52 283.823,493.434C287.199,490.058 285.597,486.716 285.553,482.537C285.515,478.854 286.439,474.464 287.902,471.081" style="fill:none;stroke:black;stroke-width:7.64px;"/>
                <path d="M229.66,413.148C230.641,413.148 231.784,413.579 232.75,413.753" style="fill:none;stroke:black;stroke-width:7.64px;"/>
                <path d="M241.335,452.824C250.549,457.431 260.969,461.136 271.3,461.812C274.488,462.02 278.046,461.755 281.022,460.525C282.261,460.013 283.771,459.186 283.42,457.596C282.776,454.672 277.715,452.482 275.414,450.925" style="fill:none;stroke:black;stroke-width:7.64px;"/>
            </g>
        </g>
        <g transform="matrix(1,0,0,1,45.9846,50.7615)">
            <path d="M399.854,240.674C399.854,239.732 400.528,238.503 400.838,237.643C401.732,235.17 402.765,232.754 403.922,230.392C407.9,222.27 412.41,213.802 417.649,206.419" style="fill:none;stroke:black;stroke-width:4.17px;"/>
            <path d="M399.682,241.018C400.188,241.018 400.984,241.597 401.464,241.76C402.925,242.256 404.708,242.445 406.12,241.718C408.918,240.276 410.068,235.67 411.573,233.117C416.25,225.188 420.378,217.01 424.573,208.82" style="fill:none;stroke:black;stroke-width:4.17px;"/>
            <path d="M416.222,205.009C416.346,204.761 417.663,204.835 417.864,204.829C419.717,204.774 421.552,204.886 423.388,205.139C428.26,205.811 433.252,206.541 437.59,209.003C439.204,209.919 440.806,210.958 442.147,212.252C442.784,212.867 443.51,214.118 444.506,214.14C445.505,214.163 446.04,212.932 446.381,212.185C447.343,210.079 448.204,208.091 449.598,206.215C450.619,204.84 451.812,203.631 453.202,202.632C453.727,202.255 454.685,201.636 454.608,200.874C454.517,199.955 453.492,199.343 452.77,198.954C451.011,198.007 449.226,197.177 447.33,196.545C443.264,195.19 439.05,193.602 434.816,192.888C430.934,192.234 427.036,192.377 423.121,192.255C418.861,192.124 419.923,188.813 419.098,185.866C418.591,184.055 416.986,183.761 415.659,185.04C413.915,186.721 413.136,189.426 412.196,191.591C410.729,194.969 408.614,198.081 408.047,201.784C407.622,204.556 407.805,209.809 411.9,207.192C412.528,206.791 413.073,206.296 413.616,205.789" style="fill:none;stroke:black;stroke-width:4.17px;"/>
        </g>
        <g transform="matrix(1,0,0,1,83.722,126.251)">
            <path d="M88.506,152.481C96.399,152.481 104.203,151.212 112.086,150.987C114.8,150.91 119.051,150.194 120.314,153.378C120.901,154.856 120.433,156.456 120.077,157.927C119.281,161.221 118.043,164.43 117.066,167.676C115.077,174.285 113.382,181.074 111.783,187.789C111.109,190.621 111.236,194.164 109.629,196.667C107.302,200.294 100.388,199.386 97.314,197.203C93.5,194.495 93.872,188.176 93.231,184.079C91.58,173.536 89.232,163.041 86.378,152.767" style="fill:none;stroke:black;stroke-width:4.17px;"/>
            <path d="M104.012,199.863C101.245,199.863 98.029,201.131 96.602,203.612C93.883,208.337 98.274,213.65 103.173,213.699C108.767,213.755 115.205,207.741 110.535,202.333C108.784,200.305 105.938,199.629 103.371,199.524" style="fill:none;stroke:black;stroke-width:4.17px;"/>
        </g>
        <g transform="matrix(1,0,0,1,4.62232,51.162)">
            <g>
                <path d="M99.244,280.564C96.175,280.564 93.068,278.378 90.84,276.486C85.443,271.902 79.846,265.984 81.72,258.342C82.126,256.685 82.774,255.029 84.041,253.837C87.258,250.808 92.678,251.561 96.721,251.459C104.839,251.255 112.853,251.852 120.957,251.986C125.059,252.054 130.358,251.387 134.265,252.879C137.14,253.976 137.62,257.081 137.307,259.788C136.693,265.094 133.979,269.852 130.296,273.651C121.419,282.81 108.19,284.153 96.299,280.534" style="fill:none;stroke:black;stroke-width:4.17px;"/>
                <path d="M92.998,262.043C92.998,262.122 92.994,262.202 93.003,262.28" style="fill:none;stroke:black;stroke-width:4.17px;"/>
                <path d="M111.089,262.689L111.089,262.755" style="fill:none;stroke:black;stroke-width:4.17px;"/>
                <path d="M102.474,270.873L102.474,270.939" style="fill:none;stroke:black;stroke-width:4.17px;"/>
                <path d="M124.873,262.904L124.873,263.102" style="fill:none;stroke:black;stroke-width:4.17px;"/>
                <path d="M114.75,272.596L114.75,272.64" style="fill:none;stroke:black;stroke-width:4.17px;"/>
            </g>
            <path d="M84.074,260.271C84.364,260.416 84.603,261.914 84.712,262.209C85.293,263.786 86.147,265.327 87.081,266.719C89.89,270.904 94.288,274.924 98.276,277.962C107.711,285.151 123.667,286.325 131.873,276.604C135.999,271.717 137.175,265.076 139.002,259.137" style="fill:none;stroke:black;stroke-width:4.17px;"/>
        </g>
        <g transform="matrix(1,0,0,1,-127.992,27.2575)">
            <path d="M140.973,431.223C141.691,428.348 142.887,425.535 143.715,422.683C144.266,420.787 144.773,418.878 145.276,416.969C145.81,414.939 146.314,412.876 146.972,410.882C147.095,410.508 147.435,409.086 147.904,408.957C148.344,408.835 148.698,409.98 148.779,410.205C149.373,411.866 149.579,413.686 149.789,415.426C149.993,417.11 150.184,418.795 150.37,420.481C150.857,424.911 150.359,432.098 154.928,434.7C159.568,437.343 165.72,438.373 170.764,440.119C178.089,442.655 184.997,446.117 192.257,448.765C198.034,450.872 203.381,455.896 200.01,462.491C196.806,468.759 188.919,468.855 182.952,467.194C178.252,465.886 173.944,463.227 169.573,461.12C161.809,457.377 153.968,453.4 146.902,448.435C145.02,447.113 143.21,445.677 141.241,444.484C139.458,443.404 137.55,442.686 136.34,440.884C134.131,437.595 137.26,434.135 139.5,431.896" style="fill:none;stroke:black;stroke-width:4.17px;"/>
            <path d="M157.556,443.93C157.515,443.849 156.415,445.007 156.356,445.077C155.093,446.556 153.921,448.141 152.853,449.767C150.658,453.109 149.01,456.854 147.438,460.522C147.078,461.361 145.845,463.449 146.682,464.319C148.009,465.7 152.007,463.166 153.165,462.592C159.242,459.58 165.543,456.981 171.801,454.373" style="fill:none;stroke:black;stroke-width:4.17px;"/>
            <path d="M165.094,437.038C165.634,435.957 168.769,434.515 169.74,433.759C173.047,431.182 175.81,428.121 178.842,425.245C179.841,424.298 181.663,422.429 183.15,423.575C184.482,424.602 184.482,427.113 184.543,428.599C184.733,433.22 184.604,437.915 183.95,442.497" style="fill:none;stroke:black;stroke-width:4.17px;"/>
            <path d="M165.309,445.653C165.191,445.889 165.116,446.151 165.028,446.4" style="fill:none;stroke:black;stroke-width:4.17px;"/>
            <path d="M171.986,448.237C171.986,448.59 171.534,449.204 171.401,449.529" style="fill:none;stroke:black;stroke-width:4.17px;"/>
            <path d="M181.031,452.975C181.031,453.316 180.772,453.756 180.666,454.074" style="fill:none;stroke:black;stroke-width:4.17px;"/>
        </g>
        <g transform="matrix(1,0,0,1,51.1742,31.916)">
            <path d="M396.72,307.945C400.965,310.067 403.243,315.566 408.093,316.724C412.13,317.688 416.316,315.23 419.955,313.823C426.291,311.373 433.205,310.41 439.349,307.472C441.999,306.205 447.022,304.134 446.211,300.346C445.701,297.967 443.442,296.414 441.881,294.726C440.394,293.118 438.817,291.288 436.865,290.237C426.557,284.687 416.329,295.778 407.911,300.291C403.309,302.76 395.812,303.707 394.083,309.346C393.246,312.073 393.489,315.092 393.489,317.905C393.489,322.932 392.648,328.642 395.748,332.981C398.53,336.876 406.955,341.138 410.411,335.827C413.224,331.505 411.961,322.919 411.647,318.004" style="fill:none;stroke:black;stroke-width:4.17px;"/>
            <path d="M409.373,338.096C418.565,333.5 427.918,328.95 437.563,325.361C441.538,323.882 448.007,322.928 450.452,319.103C453.044,315.05 450.378,307.636 448.425,303.731" style="fill:none;stroke:black;stroke-width:4.17px;"/>
        </g>
        <g transform="matrix(1,0,0,1,-9.85878,-24.9756)">
            <path d="M42.119,253.35C41.671,253.499 41.079,254.901 40.846,255.263C39.645,257.127 38.488,259.017 37.39,260.945C34.459,266.09 31.787,273.195 34.05,279.022C35.842,283.638 39.305,287.124 44.538,286.441C46.022,286.247 47.574,285.636 48.526,284.433C50.483,281.959 50.284,277.965 50.031,275.01C49.753,271.767 48.807,268.687 48.055,265.54C47.083,261.479 45.469,256.76 43.139,253.265" style="fill:none;stroke:black;stroke-width:4.17px;"/>
        </g>
        <g transform="matrix(1,0,0,1,-8.09882,-24.902)">
            <path d="M27.072,369.802C27.072,368.673 28.478,366.807 28.973,365.842C29.843,364.148 30.931,361.735 32.447,360.545C36.065,357.707 42.603,358.476 46.909,358.41C49.956,358.363 53.522,357.789 56.242,359.493C59.403,361.473 61.595,364.829 62.909,368.233C63.432,369.588 64.264,371.456 62.856,372.565C62.023,373.22 60.761,373.11 59.764,373.11C57.575,373.11 55.387,373.129 53.199,373.153C49.739,373.19 46.279,373.248 42.819,373.248C37.801,373.248 32.747,372.678 27.84,371.611" style="fill:none;stroke:black;stroke-width:4.17px;"/>
            <path d="M43.888,357.259C43.228,355.281 43.112,352.888 43.072,350.826C43.05,349.682 43.253,348.17 42.436,347.228C41.247,345.856 38.258,346.608 36.613,345.87C33.437,344.444 30.777,340.562 29.314,337.523C26.436,331.547 26.421,324.607 26.197,318.12C26.118,315.837 25.536,312.557 26.968,310.567C28.453,308.501 32.594,308.882 34.793,308.921C40.636,309.026 46.548,308.753 52.372,309.273C54.533,309.466 57.675,309.581 59.404,311.09C61.762,313.149 60.937,318.277 60.937,321.068C60.937,324.509 60.585,327.824 59.258,331.028C58.295,333.354 56.804,335.413 55.542,337.577C52.806,342.267 49.871,346.123 44.363,347.56" style="fill:none;stroke:black;stroke-width:4.17px;"/>
            <path d="M25.28,317.149C24.214,317.504 23.06,318.998 22.354,319.779C19.825,322.581 15.674,327.936 17.021,331.976C18.725,337.088 24.623,339.235 28.242,334.862" style="fill:none;stroke:black;stroke-width:4.17px;"/>
            <path d="M61.669,317.563C62.154,317.563 62.897,318.392 63.204,318.682C64.624,320.021 65.792,321.684 66.692,323.411C67.851,325.632 68.994,328.328 68.619,330.893C68.101,334.451 64.211,336.434 61.123,337.417" style="fill:none;stroke:black;stroke-width:4.17px;"/>
            <path d="M36.031,323.214C36.514,323.214 37.347,322.319 37.702,322.063C39.187,320.993 41.492,318.693 43.497,319.186C44.855,319.52 44.644,321.829 44.526,322.837C44.212,325.524 43.565,328.178 43.21,330.865C43.028,332.235 42.972,334.006 41.823,334.975C40.808,335.831 39.016,335.367 37.882,335.04C37.753,335.002 36.711,334.794 36.684,334.606C36.674,334.538 37.392,334.613 37.429,334.618C38.27,334.723 39.101,334.857 39.935,335.006C42.013,335.377 44.159,335.583 46.267,335.664" style="fill:none;stroke:black;stroke-width:4.17px;"/>
        </g>
        <g transform="matrix(0.664246,0,0,0.664246,75.1975,103.99)">
            <path d="M238.935,121.061C240.552,121.061 242.41,121.912 244.006,122.188C249.695,123.171 259.982,123.969 263.884,118.545C265.746,115.956 265.236,112.194 264.95,109.238C264.408,103.641 263.723,98.052 263.049,92.47C262.702,89.6 262.673,86.272 261.236,83.685C259.518,80.594 255.509,80.224 253.769,77.262C251.299,73.056 253.106,65.704 246.627,64.851C245.895,64.755 245.127,64.746 244.413,64.956C237.675,66.937 243.407,74.797 241.484,78.872C239.858,82.32 234.912,82.053 233.353,85.762C231.73,89.623 233.323,94.316 233.798,98.244C234.456,103.685 233.82,109.322 234.793,114.705C235.31,117.57 236.507,120.212 239.358,121.352" style="fill:none;stroke:black;stroke-width:6.27px;"/>
            <path d="M248.627,93.871C247.326,95.821 246.733,99.826 246.462,102.052C246.368,102.827 246.144,104.566 247.358,104.634C249.41,104.748 252.165,100.936 254.126,102.541C256.184,104.224 254.341,108.969 253.939,111.024" style="fill:none;stroke:black;stroke-width:6.27px;"/>
            <path d="M243.024,73.564C243.63,73.564 244.44,74.049 245.021,74.21C246.85,74.72 248.886,75.095 250.695,74.286" style="fill:none;stroke:black;stroke-width:6.27px;"/>
            <path d="M224.967,73.288C224.967,76.311 223.747,79.24 223.544,82.244" style="fill:none;stroke:black;stroke-width:6.27px;"/>
            <path d="M220.281,77.285C222.447,77.285 224.675,76.553 226.835,76.346" style="fill:none;stroke:black;stroke-width:6.27px;"/>
            <path d="M271.969,114.225C272.059,114.045 273.22,114.01 273.392,113.98C274.935,113.72 276.485,113.524 278.045,113.406" style="fill:none;stroke:black;stroke-width:6.27px;"/>
        </g>
        <g transform="matrix(1,0,0,1,309.109,74.2916)">
            <path d="M160.56,123.167C160.56,115.384 161.098,107.609 161.098,99.823L161.098,85.544C161.098,83.151 161.178,80.307 163.29,78.731C166.786,76.123 173.456,77.219 177.575,77.006C181.006,76.828 186.391,75.416 189.167,78.193C191.464,80.489 191.246,84.604 191.755,87.593C193.183,95.982 194.396,104.563 194.48,113.08C194.511,116.168 195.693,121.23 193.337,123.733C191.748,125.422 189.168,125.582 187.003,125.639C183.489,125.733 179.979,125.907 176.471,126.117C172.698,126.344 168.915,126.398 165.136,126.398C163.051,126.398 160.788,126.527 158.999,125.26" style="fill:none;stroke:black;stroke-width:4.17px;"/>
            <path d="M161.637,79.286C157.252,81.478 152.54,82.638 147.934,84.252C145.434,85.129 142.719,85.899 141.429,88.439C139.634,91.975 140.676,96.494 141.006,100.257C141.731,108.521 142.862,116.719 143.66,124.969C143.9,127.447 143.377,134.685 146.495,135.655C148.044,136.137 149.705,134.717 150.802,133.826C153.68,131.487 156.404,129.064 159.609,127.161" style="fill:none;stroke:black;stroke-width:4.17px;"/>
            <path d="M147.368,106.745C147.368,107.301 147.441,107.857 147.489,108.41" style="fill:none;stroke:black;stroke-width:4.17px;"/>
            <path d="M124.486,103.246C127.397,103.246 130.245,103.589 133.128,103.993C134.097,104.128 136.133,104.81 137.056,104.207C138.541,103.236 134.494,99.71 134.161,99.96C133.874,100.175 135.183,102.722 135.128,103.295C134.937,105.279 133.002,106.431 131.419,107.284" style="fill:none;stroke:black;stroke-width:4.17px;"/>
        </g>
        <g transform="matrix(1,0,0,1,-24.8395,260.171)">
            <path d="M325.962,110.333C326.162,109.932 327.41,109.718 327.773,109.581C329.634,108.879 331.514,108.218 333.412,107.625C340.489,105.414 348.782,105.6 355.275,109.555C358.693,111.637 361.421,116.905 359.375,120.798C358.066,123.288 355.093,124.558 352.629,125.562C345.668,128.398 336.9,128.427 329.993,125.281C324.885,122.954 321.986,116.835 324.609,111.59" style="fill:none;stroke:black;stroke-width:4.17px;"/>
            <path d="M330.27,126.485C325.623,126.485 322.909,131.795 322.952,135.768C322.965,137.013 324.605,139.944 323.224,140.831" style="fill:none;stroke:black;stroke-width:4.17px;"/>
            <path d="M326.178,140.053C326.587,140.053 326.977,140.109 327.382,140.146" style="fill:none;stroke:black;stroke-width:4.17px;"/>
            <path d="M360.421,117.87C364.566,117.87 371.167,121.309 371.383,126.068C371.466,127.898 370.224,129.196 369.489,130.749" style="fill:none;stroke:black;stroke-width:4.17px;"/>
            <path d="M372.267,126.27C372.981,126.27 373.697,126.346 374.407,126.415" style="fill:none;stroke:black;stroke-width:4.17px;"/>
            <path d="M373.128,127.347C373.783,127.674 374.328,128.911 374.693,129.487" style="fill:none;stroke:black;stroke-width:4.17px;"/>
            <path d="M340.392,118.947C340.392,119.254 340.47,119.571 340.533,119.87" style="fill:none;stroke:black;stroke-width:4.17px;"/>
            <path d="M353.314,116.147C353.314,116.396 353.34,116.656 353.367,116.903" style="fill:none;stroke:black;stroke-width:4.17px;"/>
            <path d="M322.301,118.086C320.637,118.086 318.633,122.015 317.976,123.118" style="fill:none;stroke:black;stroke-width:4.17px;"/>
            <path d="M349.007,123.039C349.892,123.334 350.857,124.6 351.468,125.232C353.298,127.127 356.173,129.544 357.011,132.102C357.438,133.407 356.449,135.888 357.534,136.871C360.067,139.167 364.234,133.99 360.057,133.61" style="fill:none;stroke:black;stroke-width:4.17px;"/>
            <path d="M352.062,108.141C352.261,107.743 354.045,108.229 354.312,108.286C356.818,108.826 359.189,109.542 361.599,110.418" style="fill:none;stroke:black;stroke-width:4.17px;"/>
        </g>
        <g transform="matrix(1,0,0,1,-56.2668,80.0754)">
            <path d="M403.529,153.175C403.113,154.005 402.957,155.174 402.904,156.08C402.836,157.261 402.738,158.59 403.181,159.715C404.744,163.677 411.869,162.372 415.005,162.216C422.694,161.834 430.361,161.299 438.067,161.359C447.165,161.43 456.166,162.11 465.273,161.745C470.132,161.551 482.128,163.072 482.292,155.531C482.312,154.597 482.068,153.672 481.808,152.784C479.86,146.125 472.601,147.786 467.089,148.076C451.302,148.907 435.54,149.046 419.738,149.272C415.014,149.339 410.274,149.192 405.564,149.663C403.795,149.84 401.229,150.481 400.935,152.608" style="fill:none;stroke:black;stroke-width:4.17px;"/>
            <path d="M410.851,121.731C411.577,123.182 410.731,126.623 410.644,128.174C410.403,132.49 410.069,136.799 410.148,141.123C410.183,143.079 410.102,145.377 410.987,147.175C412.482,150.209 416.891,148.656 419.457,148.336C426.868,147.409 435.073,147.203 442.493,148.076" style="fill:none;stroke:black;stroke-width:4.17px;"/>
            <path d="M411.713,137.237C415.837,137.237 425.222,133.49 425.562,140.09C425.633,141.468 425.374,142.82 425.25,144.186" style="fill:none;stroke:black;stroke-width:4.17px;"/>
            <path d="M439.28,127.546C439.045,127.076 437.194,126.72 436.761,126.627C433.861,126.003 430.046,128.121 431.206,131.55C432.267,134.691 436.507,131.763 437.869,130.543C439.221,129.332 440.366,129.112 440.062,130.939C439.981,131.427 439.874,131.906 439.75,132.385C439.523,133.258 439.276,134.128 439.016,134.992C438.617,136.318 438.205,137.642 437.869,138.987" style="fill:none;stroke:black;stroke-width:4.17px;"/>
            <path d="M450.048,130.346C450.048,128.669 446.084,130.937 445.776,131.185C442.861,133.533 440.933,141.2 444.936,143.448C446.715,144.447 448.455,143.227 449.587,141.857C451.707,139.288 451.537,135.475 450.228,132.561" style="fill:none;stroke:black;stroke-width:4.17px;"/>
            <path d="M456.94,123.885C455.317,122.803 453.293,125.115 453.397,126.676C453.492,128.096 454.702,128.491 455.564,127.357" style="fill:none;stroke:black;stroke-width:4.17px;"/>
        </g>
        <g transform="matrix(1,0,0,1,-21.8382,-18.8447)">
            <path d="M67.397,408.787C60.791,404.383 51.153,404.908 44.777,409.691C42.444,411.44 40.799,413.868 39.32,416.343C37.544,419.315 36.311,422.78 36.82,426.284C37.783,432.915 43.989,437.982 49.679,440.742C56.759,444.177 68.056,443.995 73.99,438.386C84.082,428.847 80.36,411.161 67.253,406.614" style="fill:none;stroke:black;stroke-width:4.17px;"/>
            <path d="M40.174,418.952C42.824,417.628 48.496,416.542 48.719,420.946C48.832,423.177 46.941,425.377 47.977,427.542C49.234,430.171 53.197,430.108 53.536,433.327C53.83,436.12 51.048,438.939 52.534,441.664" style="fill:none;stroke:black;stroke-width:4.17px;"/>
            <path d="M57.748,406.375C55.694,410.484 58.869,413.819 59.436,417.789C59.63,419.143 60.119,422.086 62.186,420.777C66.358,418.135 63.396,411.467 66.384,408.147" style="fill:none;stroke:black;stroke-width:4.17px;"/>
            <path d="M63.951,440.661C63.271,439.301 61.898,438.533 61.409,436.882C60.234,432.915 64.922,430.476 67.914,429.592C69.215,429.208 71.114,428.682 71.718,427.293C73.159,423.979 69.182,420.554 71.855,417.409C72.255,416.938 72.72,416.514 73.241,416.182" style="fill:none;stroke:black;stroke-width:4.17px;"/>
        </g>
        <g transform="matrix(0.44395,0,0,0.44395,149.231,109.953)">
            <path d="M333.803,406.446C333.803,410.808 331.822,415.417 331.873,420.023C331.934,425.505 332.956,430.985 333.425,436.443C334.335,447.017 335.107,457.621 336.104,468.185C336.544,472.848 337.006,477.513 337.299,482.188C337.458,484.735 337.92,487.951 340.293,489.454C344.149,491.897 350.658,490.197 354.893,489.798C365.117,488.833 375.439,488.811 385.695,489.008C394.806,489.183 403.911,489.592 413.021,489.77C416.748,489.843 421.425,490.571 424.194,487.463C426.755,484.589 426.5,480.381 426.571,476.79C426.73,468.678 425.955,460.781 424.95,452.74C423.388,440.248 423.624,427.467 421.647,415.037C420.899,410.341 419.656,403.877 415.157,401.315C409.593,398.148 401.074,399.86 394.938,399.969C380.5,400.227 366.045,400.052 351.604,400.052C346.961,400.052 342.295,399.93 337.663,400.313C335.948,400.454 333.333,400.536 332.052,401.906C330.303,403.776 334.181,410.114 334.655,412.324" style="fill:none;stroke:black;stroke-width:9.39px;"/>
            <path d="M338.178,472.065C338.178,470.523 341.885,469.96 342.8,469.854C348.036,469.247 353.244,471.312 358.52,471.097C369.352,470.655 380.024,467.382 390.777,466.063C401.794,464.712 412.343,465.35 423.35,466.249" style="fill:none;stroke:black;stroke-width:9.39px;"/>
            <path d="M377.213,467.691C376.361,467.265 378.784,462.629 378.985,462.259C381.912,456.856 387.884,453.682 390.241,447.981C393.451,440.215 392.095,431.605 395.666,423.704C396.278,422.351 397.424,417.229 399.162,416.843C400.479,416.55 401.137,419.922 401.318,420.648C402.463,425.225 404.331,429.633 406.51,433.806C408.68,437.96 410.549,442.547 413.405,446.291C416.605,450.486 420.744,453.209 421.825,458.749" style="fill:none;stroke:black;stroke-width:9.39px;"/>
            <path d="M348.61,467.691C348.61,467.217 347.474,465.833 347.298,465.246C346.508,462.613 346.646,459.751 348.012,457.334C350.663,452.645 357.743,452.282 359.392,446.841C360.006,444.814 359.435,442.488 359.186,440.44" style="fill:none;stroke:black;stroke-width:9.39px;"/>
            <path d="M353.321,433.703C350.827,433.703 348.489,435.603 347.373,437.755C346.467,439.504 347.571,441.39 349.55,441.498C352.544,441.661 355.817,440.039 358.787,439.595C362.742,439.005 366.676,439.692 370.641,439.602C372.509,439.56 375.567,439.474 376.636,437.59C377.739,435.647 374.278,434.246 372.976,433.834C368.262,432.342 362.753,432.802 357.888,433.112" style="fill:none;stroke:black;stroke-width:9.39px;"/>
        </g>
        <g transform="matrix(0.68145,0,0,0.68145,104.328,343.17)">
            <path d="M428.388,98.481C432.293,98.481 437.088,100.52 440.64,98.131C444.684,95.41 442.909,88.708 442.576,84.718C441.916,76.792 442.265,68.86 441.67,60.949C441.438,57.873 439.794,53.233 440.736,50.263C441.619,47.479 447.646,49.281 449.684,49.075C455.533,48.484 459.673,44.425 460.267,38.554C460.909,32.217 455.997,27.64 449.753,28.294C447.91,28.487 444.591,30.464 442.81,29.42C441.39,28.588 441.576,25.94 441.381,24.578C441.024,22.074 439.912,19.894 437.934,18.281C434.391,15.392 428.748,14.05 424.425,15.87C423.374,16.313 420.794,19.275 419.817,19.167C418.71,19.044 418.173,16.634 417.674,15.898C416.278,13.837 413.559,12.663 411.109,13.268C406.525,14.398 402.911,20.523 403.163,25.066C403.23,26.274 403.702,27.362 404.482,28.28C404.891,28.761 406.274,29.166 405.828,29.612C405.315,30.125 403.182,30.167 402.428,30.629C398.959,32.755 399.049,36.885 401.172,39.969C404.08,44.194 407.999,44.003 412.338,45.387C414.392,46.043 416.159,47.4 418.176,48.073C419.152,48.398 420.43,47.93 421.294,48.334C421.861,48.598 420.802,50.698 420.751,51.177C420.583,52.746 421.734,54.317 423.162,54.878C426.207,56.075 430.69,52.147 433.188,54.157C436.24,56.613 434.786,63.2 434.555,66.43C433.758,77.584 434.222,89.247 430.586,99.751" style="fill:none;stroke:black;stroke-width:6.11px;"/>
        </g>
        <g transform="matrix(0.728652,0,0,0.728652,145.759,315.623)">
            <path d="M46.683,97.032C42.91,97.032 39.713,96.68 36.31,98.994C30.978,102.62 30.308,110.788 35.426,114.899C39.06,117.818 44.524,117.969 48.59,115.883C54.394,112.904 58.012,105.927 52.419,100.922C50.974,99.629 45.77,97.46 46.008,95.148C46.203,93.239 48.932,92.329 50.293,91.478C53.229,89.643 55.561,87.323 57.369,84.369C59.039,81.64 60.008,78.685 61.094,75.699C61.203,75.4 62.385,71.437 62.622,71.496C62.932,71.573 61.994,75.521 61.94,75.787C61.408,78.45 61.139,81.133 61.506,83.836C62.294,89.637 69.494,93.174 68.803,99.054C68.411,102.379 65.707,104.431 63.973,107.054C61.475,110.833 60.431,117.356 64.764,120.223C66.814,121.579 69.673,121.745 72.05,121.992C75.326,122.333 78.585,122.401 81.648,121.009C87.454,118.37 89.774,110.4 86.241,105.059C83.452,100.844 77.242,98.244 72.319,98.604" style="fill:none;stroke:black;stroke-width:5.72px;"/>
            <path d="M61.49,71.727C59.197,70.198 57.311,68.297 54.732,67.128C53.154,66.413 51.577,65.745 49.881,65.359C48.337,65.008 43.524,63.668 42.667,65.87C42.002,67.581 44.481,69.788 45.453,70.886C49.028,74.925 54.792,78.438 59.979,75.034" style="fill:none;stroke:black;stroke-width:5.72px;"/>
        </g>
        <g transform="matrix(1,0,0,1,-12.2137,123.304)">
            <path d="M20.306,58.273C20.306,59.761 20.282,61.25 20.334,62.737C20.361,63.497 20.361,65.017 20.361,65.017C20.361,65.017 20.349,63.849 20.368,63.266C20.405,62.14 20.427,61.016 20.54,59.894C20.91,56.233 22.617,53.19 25.677,51.117C31.47,47.193 37.748,43.792 43.794,40.273C47.218,38.28 50.852,36 54.919,35.891C58.337,35.8 61.302,37.343 64.252,38.858C66.522,40.024 71.431,41.41 72.425,44.036C72.937,45.389 71.444,46.425 70.468,47.031C67.6,48.811 64.261,50.024 61.189,51.412C53.744,54.778 45.028,60.886 36.823,61.659C32.548,62.061 28.067,60.804 24.125,59.228" style="fill:none;stroke:black;stroke-width:4.17px;"/>
            <path d="M37.469,62.648C37.469,63.591 37.579,64.546 37.613,65.491" style="fill:none;stroke:black;stroke-width:4.17px;"/>
            <path d="M72.13,48.851L72.13,53.795" style="fill:none;stroke:black;stroke-width:4.17px;"/>
            <path d="M53.621,34.717C53.621,26.06 60.225,27.73 66.004,30.253C71.056,32.459 79.319,36.738 74.382,43.556" style="fill:none;stroke:black;stroke-width:4.17px;"/>
        </g>
        <g transform="matrix(1,0,0,1,24.0473,132.031)">
            <path d="M152.482,22.914C152.482,26.169 151.558,29.59 151.246,32.837" style="fill:none;stroke:black;stroke-width:4.17px;"/>
            <path d="M147.367,28.029C150.659,28.029 153.948,28.049 157.24,28.117" style="fill:none;stroke:black;stroke-width:4.17px;"/>
            <path d="M169.173,26.953C171.303,26.953 173.51,27.477 175.634,27.661" style="fill:none;stroke:black;stroke-width:4.17px;"/>
            <path d="M148.175,49.836C148.175,47.563 151.78,43.879 153.097,42.342" style="fill:none;stroke:black;stroke-width:4.17px;"/>
            <path d="M145.483,40.682C145.518,40.611 145.605,40.902 145.609,40.913" style="fill:none;stroke:black;stroke-width:4.17px;"/>
            <path d="M156.52,49.028C156.52,49.082 156.517,49.137 156.542,49.187" style="fill:none;stroke:black;stroke-width:4.17px;"/>
            <path d="M165.943,42.298C166.825,42.298 167.938,43.356 168.591,43.836C170.822,45.475 172.797,47.362 174.942,49.105" style="fill:none;stroke:black;stroke-width:4.17px;"/>
            <path d="M168.096,48.489C168.084,48.465 171.004,46.315 171.157,46.187C173.113,44.551 174.887,42.805 176.634,40.952" style="fill:none;stroke:black;stroke-width:4.17px;"/>
        </g>
        <g transform="matrix(1,0,0,1,-82.8819,305.731)">
            <path d="M316.615,75.314C319.987,75.314 324.417,73.192 327.609,72.237C335.1,69.998 342.556,67.732 350.426,67.397C352.806,67.296 360.665,66.227 361.233,69.875C361.723,73.023 356.376,75.657 354.113,76.6C345.614,80.141 335.636,81.508 326.499,81.698C323.474,81.761 316.037,82.06 316.522,77.21" style="fill:none;stroke:black;stroke-width:4.17px;"/>
            <path d="M331.422,85.006C330.779,85.006 330.336,84.856 329.675,85.083C329.252,85.227 328.851,85.474 328.505,85.753C325.739,87.981 330.365,90.048 331.048,87.725" style="fill:none;stroke:black;stroke-width:4.17px;"/>
            <path d="M355.92,79.083C354.319,79.083 350.956,81.629 352.552,83.335C353.39,84.231 355.088,83.458 354.777,82.215" style="fill:none;stroke:black;stroke-width:4.17px;"/>
        </g>
        <g transform="matrix(1,0,0,1,49.5804,22.1632)">
            <path d="M396.078,404.945C396.078,400.852 396.704,396.719 396.962,392.634C397.091,390.58 397.162,388.154 398.808,386.665C401.631,384.111 407.411,385.735 410.802,385.913C419.913,386.393 429.06,386.258 438.181,386.41C441.565,386.467 446.841,385.625 449.696,387.812C452.392,389.878 452.225,393.553 452.329,396.607C452.41,398.994 453.286,402.413 451.859,404.536C450.242,406.942 446.736,406.941 444.163,407.107C437.223,407.555 430.348,406.729 423.456,406.039C414.981,405.192 406.549,403.653 398.012,403.653" style="fill:none;stroke:black;stroke-width:4.17px;"/>
            <path d="M409.862,387.5C409.862,384.736 408.925,381.52 408.592,378.745" style="fill:none;stroke:black;stroke-width:4.17px;"/>
            <path d="M406.416,376.732C406.861,376.732 405.969,376.715 405.374,376.169C404.636,375.493 403.938,374.547 403.572,373.62C402.776,371.602 403.373,366.998 405.818,366.183C406.983,365.795 407.732,367.327 408.108,368.152C409.151,370.441 410.119,373.41 409.923,375.949" style="fill:none;stroke:black;stroke-width:4.17px;"/>
            <path d="M424.292,387.285C424.292,384.694 424.249,382.008 423.07,379.65C421.877,377.265 419.323,374.825 419.817,371.967C420.023,370.778 421.961,366.178 423.755,367.972C425.904,370.12 426.683,375.831 425.557,378.565" style="fill:none;stroke:black;stroke-width:4.17px;"/>
            <path d="M440.229,388.792C439.741,386.84 440.112,384.912 439.372,382.938C437.964,379.185 433.702,375.648 436.717,371.479C438.592,368.886 441.415,369.727 442.519,372.438C443.642,375.194 443.121,378.469 441.772,381.026" style="fill:none;stroke:black;stroke-width:4.17px;"/>
            <path d="M396.94,395.038C397.38,395.038 398.344,394.106 398.724,393.891C399.96,393.191 401.365,392.681 402.772,392.48C406.882,391.893 410.632,394.751 414.732,394.59C419.258,394.412 423.108,391.342 427.579,391.342C431.298,391.342 434.742,393.297 438.33,394.045C442.702,394.956 446.911,394.515 451.305,394.163" style="fill:none;stroke:black;stroke-width:4.17px;"/>
            <path d="M397.801,400.207C401.286,399.51 404.818,398.627 408.394,398.594C412.292,398.557 416.128,399.448 420.011,399.614C423.403,399.759 426.772,399.304 430.172,399.561C433.584,399.819 436.852,400.817 440.194,401.468C444.503,402.308 448.832,402.745 453.12,403.741" style="fill:none;stroke:black;stroke-width:4.17px;"/>
        </g>
        <g transform="matrix(1,0,0,1,71.5633,181.358)">
            <path d="M44.221,192.453C42.985,191.835 40.607,192.131 39.282,192.069C34.823,191.859 29.384,191.386 25.629,194.321C19.442,199.159 20.497,206.6 27.486,209.76C33.312,212.393 40.536,212.217 46.792,212.089C49.379,212.036 52.662,212.019 54.929,210.606C57.859,208.78 57.994,205.41 56.632,202.535C54.672,198.396 50.738,195.378 46.386,194.134" style="fill:none;stroke:black;stroke-width:4.17px;"/>
            <path d="M29.415,210.221C28.186,212.679 27.244,215.457 25.756,217.764" style="fill:none;stroke:black;stroke-width:4.17px;"/>
            <path d="M49.067,214.528C49.067,215.784 49.213,217.038 49.281,218.292" style="fill:none;stroke:black;stroke-width:4.17px;"/>
            <path d="M43.144,192.453C43.144,190.697 43.817,188.841 44.364,187.201C44.807,185.872 45.387,184.598 46.243,183.481C49.608,179.093 55.14,180.671 57.402,185.256C59.279,189.064 58.005,193.346 54.874,196.013" style="fill:none;stroke:black;stroke-width:4.17px;"/>
            <path d="M51.221,191.915C54.843,191.915 58.294,194.332 62.066,194.272C63.344,194.251 65.304,193.164 63.582,192.041C62.123,191.089 60.199,190.751 58.5,190.558" style="fill:none;stroke:black;stroke-width:4.17px;"/>
            <path d="M50.413,186.531C50.413,186.66 50.308,186.831 50.276,186.959" style="fill:none;stroke:black;stroke-width:4.17px;"/>
            <path d="M61.451,184.377C61.451,184.583 61.461,184.774 61.511,184.976" style="fill:none;stroke:black;stroke-width:4.17px;"/>
            <path d="M21.338,218.836C21.436,218.64 22.685,218.711 22.849,218.698C24.561,218.564 26.277,218.452 27.992,218.347" style="fill:none;stroke:black;stroke-width:4.17px;"/>
            <path d="M45.298,219.643C47.151,219.643 48.928,219.67 50.787,219.501" style="fill:none;stroke:black;stroke-width:4.17px;"/>
        </g>
        <g transform="matrix(1,0,0,1,28.6445,31.3175)">
            <path d="M419.346,446.743C417.12,446.743 413.202,449.796 411.396,450.891C410.733,451.294 409.398,452.247 410.127,453.166C411.83,455.313 417.013,455.345 419.489,455.863" style="fill:none;stroke:black;stroke-width:4.17px;"/>
            <path d="M427.961,438.398C427.216,439.887 425.331,441.3 424.236,442.524C421.645,445.419 419.399,448.247 418.72,452.188C418.143,455.532 418.432,459.609 421.252,461.934C424.105,464.287 428.987,464.517 432.493,464.89C441.05,465.801 452.405,469.857 460.502,465.28C470.463,459.65 466.401,446.679 458.337,441.771C455.004,439.742 451.201,438.932 447.388,438.387C441.854,437.596 436.232,437.435 430.653,437.321" style="fill:none;stroke:black;stroke-width:4.17px;"/>
            <path d="M440.344,447.82C439.898,446.928 435.924,447.431 435.24,447.512C427.984,448.372 428.224,457.469 435.273,458.49C436.744,458.703 438.257,458.563 439.636,457.995" style="fill:none;stroke:black;stroke-width:4.17px;"/>
            <path d="M458.381,441.628C458.381,439.771 462.769,438.4 463.98,438.227C470.476,437.299 476.58,445.024 471.067,450.325" style="fill:none;stroke:black;stroke-width:4.17px;"/>
            <path d="M433.883,438.667C430.263,445.907 428.961,454.933 433.427,462.22" style="fill:none;stroke:black;stroke-width:4.17px;"/>
            <path d="M447.075,440.013C443.988,446.186 443.231,456.762 445.696,463.171" style="fill:none;stroke:black;stroke-width:4.17px;"/>
            <path d="M454.612,451.051C454.612,451.115 454.595,451.231 454.645,451.281" style="fill:none;stroke:black;stroke-width:4.17px;"/>
            <path d="M468.342,445.936C468.342,445.967 468.335,446.075 468.348,446.062" style="fill:none;stroke:black;stroke-width:4.17px;"/>
            <path d="M459.189,459.396C460.473,459.396 462.017,460.239 463.337,460.402C467.209,460.879 470.76,460.061 474.056,458.001" style="fill:none;stroke:black;stroke-width:4.17px;"/>
        </g>
    </g>
</svg>
